# xmcd CD database file
#
# Track frame offsets:
#	150
#	17840
#	38060
#	57820
#	76515
#	95027
#	120337
#	133985
#	153637
#	175300
#	193742
#	214005
#
# Disc length: 3110 seconds
#
# Revision: 2
# Processed by: cddbd v1.5PL3 Copyright (c) Steve Scherf et al.
# Submitted via: CDex 1.51
#
DISCID=9d0c240c
DTITLE=Billy Sheehan - Compression
DYEAR=2001
DGENRE=Hard Rock
TTITLE0=Bleed Along The Way
TTITLE1=Oblivion
TTITLE2=Something's Gotta Give
TTITLE3=What One Was.......
TTITLE4=Chameleon
TTITLE5=Perfect Groove
TTITLE6=One Good Reason
TTITLE7=Three Days Blind
TTITLE8=Caroline
TTITLE9=All Mixed Up
TTITLE10=Feed Your Head
TTITLE11=Wear Away The Stone
EXTD=YEAR: 2001
EXTT0=
EXTT1=
EXTT2=
EXTT3=
EXTT4=
EXTT5=
EXTT6=
EXTT7=
EXTT8=
EXTT9=
EXTT10=
EXTT11=
PLAYORDER=
